<?xml version="1.0" standalone="no"?><!DOCTYPE svg PUBLIC "-//W3C//DTD SVG 1.1//EN" "http://www.w3.org/Graphics/SVG/1.1/DTD/svg11.dtd"><svg t="1684770464489" class="icon" viewBox="0 0 1024 1024" version="1.1" xmlns="http://www.w3.org/2000/svg" p-id="1368" xmlns:xlink="http://www.w3.org/1999/xlink" width="200" height="200"><path d="M512 0c282.7648 0 512 212.032 512 473.6S794.7648 947.2 512 947.2c-42.688 0-84.16-4.8384-123.8144-13.952l-146.56 82.304a51.2 51.2 0 0 1-76.2752-44.6464V822.144C63.6928 735.5904 0 611.456 0 473.6 0 212.032 229.2352 0 512 0zM294.4 448a51.2 51.2 0 1 0 0 102.4 51.2 51.2 0 0 0 0-102.4z m435.2 0a51.2 51.2 0 1 0 0 102.4 51.2 51.2 0 0 0 0-102.4z" fill="#6B57FE" p-id="1369"></path><path d="M512 499.2m-51.2 0a51.2 51.2 0 1 0 102.4 0 51.2 51.2 0 1 0-102.4 0Z" fill="#FFBA00" p-id="1370"></path></svg>